<svg xmlns="http://www.w3.org/2000/svg" width="17.395" height="12.231" viewBox="0 0 17.395 12.231"><defs><style>.a{fill:#fff;}</style></defs><path class="a" d="M18.081,6.414a2.186,2.186,0,0,0-1.538-1.548,51.652,51.652,0,0,0-6.8-.366,51.653,51.653,0,0,0-6.8.366A2.186,2.186,0,0,0,1.413,6.414a22.929,22.929,0,0,0-.363,4.214,22.929,22.929,0,0,0,.363,4.214,2.153,2.153,0,0,0,1.538,1.523,51.652,51.652,0,0,0,6.8.366,51.652,51.652,0,0,0,6.8-.366,2.153,2.153,0,0,0,1.538-1.523,22.929,22.929,0,0,0,.363-4.214,22.929,22.929,0,0,0-.363-4.214Zm-10.113,6.8V8.041l4.546,2.586L7.968,13.214Z" transform="translate(-1.05 -4.5)"/></svg>