<svg xmlns="http://www.w3.org/2000/svg" width="16.308" height="16.308" viewBox="0 0 16.308 16.308"><defs><style>.a{fill:#fff;}</style></defs><path class="a" d="M8.154,0C5.939,0,5.662.01,4.792.049A6.012,6.012,0,0,0,2.813.428a3.993,3.993,0,0,0-1.445.94,3.978,3.978,0,0,0-.94,1.445A6,6,0,0,0,.049,4.792C.008,5.662,0,5.939,0,8.154s.01,2.492.049,3.361a6.016,6.016,0,0,0,.379,1.979,4,4,0,0,0,.94,1.445,3.987,3.987,0,0,0,1.445.94,6.02,6.02,0,0,0,1.979.379c.87.041,1.146.049,3.361.049s2.492-.01,3.361-.049a6.034,6.034,0,0,0,1.979-.379,4.167,4.167,0,0,0,2.385-2.385,6.016,6.016,0,0,0,.379-1.979c.041-.87.049-1.146.049-3.361s-.01-2.492-.049-3.361a6.03,6.03,0,0,0-.379-1.979,4,4,0,0,0-.94-1.445,3.973,3.973,0,0,0-1.445-.94A6,6,0,0,0,11.515.049C10.645.008,10.369,0,8.154,0Zm0,1.468c2.176,0,2.436.011,3.3.048a4.492,4.492,0,0,1,1.513.282A2.683,2.683,0,0,1,14.51,3.345a4.5,4.5,0,0,1,.281,1.513c.039.86.048,1.118.048,3.3s-.01,2.436-.05,3.3a4.589,4.589,0,0,1-.286,1.513,2.589,2.589,0,0,1-.611.939,2.544,2.544,0,0,1-.938.609,4.535,4.535,0,0,1-1.519.281c-.866.039-1.12.048-3.3.048s-2.437-.01-3.3-.05A4.623,4.623,0,0,1,3.312,14.5a2.525,2.525,0,0,1-.937-.611,2.476,2.476,0,0,1-.612-.938,4.627,4.627,0,0,1-.285-1.519c-.031-.856-.041-1.12-.041-3.291s.011-2.437.041-3.3a4.622,4.622,0,0,1,.285-1.518,2.417,2.417,0,0,1,.612-.938,2.412,2.412,0,0,1,.937-.61,4.513,4.513,0,0,1,1.509-.286c.866-.031,1.121-.041,3.3-.041l.031.02Zm0,2.5a4.187,4.187,0,1,0,4.187,4.187A4.187,4.187,0,0,0,8.154,3.967Zm0,6.9a2.718,2.718,0,1,1,2.718-2.718A2.717,2.717,0,0,1,8.154,10.872ZM13.485,3.8a.978.978,0,1,1-.978-.978A.979.979,0,0,1,13.485,3.8Z"/></svg>