<svg xmlns="http://www.w3.org/2000/svg" width="16.308" height="13.245" viewBox="0 0 16.308 13.245"><defs><style>.a{fill:#fff;}</style></defs><path class="a" d="M14.631,6.682c.01.145.01.29.01.435a9.444,9.444,0,0,1-9.509,9.509A9.445,9.445,0,0,1,0,15.125a6.914,6.914,0,0,0,.807.041,6.694,6.694,0,0,0,4.149-1.428,3.348,3.348,0,0,1-3.125-2.318,4.215,4.215,0,0,0,.631.052,3.535,3.535,0,0,0,.88-.114,3.343,3.343,0,0,1-2.68-3.28V8.037a3.366,3.366,0,0,0,1.511.424,3.347,3.347,0,0,1-1.035-4.47,9.5,9.5,0,0,0,6.891,3.5,3.773,3.773,0,0,1-.083-.766,3.345,3.345,0,0,1,5.784-2.287,6.58,6.58,0,0,0,2.121-.807,3.333,3.333,0,0,1-1.469,1.842,6.7,6.7,0,0,0,1.925-.517,7.184,7.184,0,0,1-1.676,1.728Z" transform="translate(0 -3.381)"/></svg>