<svg xmlns="http://www.w3.org/2000/svg" width="13.774" height="15.855" viewBox="0 0 13.774 15.855"><defs><style>.a{fill:#fff;}</style></defs><path class="a" d="M9.6.013C10.468,0,11.327.007,12.186,0a4.115,4.115,0,0,0,1.156,2.755,4.659,4.659,0,0,0,2.8,1.183V6.6a7.071,7.071,0,0,1-2.775-.641,8.162,8.162,0,0,1-1.07-.614c-.007,1.929.007,3.858-.013,5.78a5.046,5.046,0,0,1-.892,2.6,4.922,4.922,0,0,1-3.9,2.121,4.817,4.817,0,0,1-2.7-.68A4.982,4.982,0,0,1,2.382,11.4c-.013-.33-.02-.661-.007-.984A4.973,4.973,0,0,1,8.143,6c.013.978-.026,1.955-.026,2.933a2.267,2.267,0,0,0-2.894,1.4A2.621,2.621,0,0,0,5.131,11.4a2.248,2.248,0,0,0,2.312,1.9,2.219,2.219,0,0,0,1.83-1.064,1.524,1.524,0,0,0,.271-.7c.066-1.183.04-2.358.046-3.541C9.6,5.325,9.583,2.669,9.6.013Z" transform="translate(-2.369)"/></svg>